<?xml version="1.0" encoding="utf-8"?>
<!-- Generator: Adobe Illustrator 24.0.1, SVG Export Plug-In . SVG Version: 6.00 Build 0)  -->
<svg version="1.1" id="レイヤー_1" xmlns="http://www.w3.org/2000/svg" xmlns:xlink="http://www.w3.org/1999/xlink" x="0px"
	 y="0px" viewBox="0 0 180 60" style="enable-background:new 0 0 180 60;" xml:space="preserve">
<style type="text/css">
	.st0{fill:#5DB7B5;}
	.st1{fill:#040000;}
</style>
<g>
	<polygon class="st0" points="4.1,49.3 4.8,49.3 4.8,34.5 18.8,49.3 19.8,49.3 4.1,32.4 	"/>
	<rect x="27.4" y="14.4" class="st0" width="11.8" height="0.8"/>
	<polygon class="st0" points="18.3,10.7 4.8,24.8 4.8,10.7 4.1,10.7 4.1,26.9 19.3,10.7 	"/>
	<polygon class="st0" points="24.3,10.7 20.6,10.7 3.1,29.5 3.1,10.7 0.2,10.7 0.2,49.3 3.1,49.3 3.1,29.6 21.1,49.3 24.7,49.3 
		6.6,29.6 	"/>
	<path class="st0" d="M69.3,16.5c2.3-1.4,5-2.1,7.7-2.1c1.8,0,3.6,0.3,5.3,0.9c1.7,0.7,3.2,1.6,4.6,2.7l0.5-0.6
		c-2.9-2.5-6.6-3.9-10.4-3.8c-2.9,0-5.7,0.7-8.1,2.2c-1.2,0.7-2.3,1.6-3.3,2.6c-1,1-1.8,2.1-2.5,3.3c-1.4,2.5-2.2,5.3-2.2,8.2
		c0,2.9,0.7,5.7,2.2,8.2c1.4,2.5,3.4,4.5,5.9,5.9c2.5,1.5,5.3,2.2,8.1,2.2c2,0,4.1-0.4,6-1.1c1.9-0.8,3.6-1.9,5.1-3.3l-0.5-0.6
		c-1.4,1.3-3.1,2.4-4.9,3.1c-1.8,0.7-3.7,1.1-5.7,1.1c-2.7,0-5.4-0.7-7.7-2.1c-2.4-1.4-4.3-3.3-5.7-5.7c-1.4-2.4-2.1-5-2.1-7.8
		c0-2.7,0.7-5.4,2.1-7.8C65,19.8,67,17.9,69.3,16.5z"/>
	<polygon class="st0" points="57.5,10.7 27.4,10.7 27.4,13.4 40.2,13.4 40.2,49.3 43,49.3 43,13.4 57.5,13.4 	"/>
	<path class="st0" d="M88.8,42.6c-1,1-2.2,1.8-3.5,2.5c-1.3,0.7-2.6,1.3-4,1.6c-1.4,0.4-2.8,0.5-4.2,0.5c-3,0-6-0.8-8.6-2.3
		c-2.6-1.5-4.8-3.7-6.3-6.3c-1.5-2.6-2.3-5.6-2.3-8.7c0-3.1,0.8-6,2.3-8.7c1.5-2.6,3.7-4.8,6.3-6.3c2.6-1.5,5.6-2.3,8.6-2.3
		c4.1,0,8,1.4,11.1,4.1l1.8-2.2c-1.2-1-2.5-1.9-3.9-2.6c-1.4-0.7-2.9-1.2-4.4-1.6c-1.5-0.4-3-0.5-4.6-0.5c-3.5,0-7,0.9-10,2.7
		c-3,1.8-5.6,4.3-7.3,7.3c-1.8,3-2.7,6.5-2.7,10c0,3.5,0.9,7,2.7,10.1c1.7,3,4.3,5.6,7.3,7.3c3,1.8,6.5,2.7,10.1,2.7
		c5.1,0.1,10-1.9,13.7-5.4L88.8,42.6z"/>
	<polygon class="st0" points="57.5,14.4 44,14.4 44,49.3 44.8,49.3 44.8,15.1 57.5,15.1 	"/>
</g>
<g>
	<path class="st1" d="M116.9,38.7c-0.3-0.5-0.8-1.1-1.3-1.8c-0.6-0.6-1.1-1.2-1.5-1.5c-0.4-0.3-0.9-0.8-1.6-1.5l-2.2-1.9
		c-1.1-0.9-2-1.8-2.5-2.6c-0.6-0.8-0.8-1.6-0.8-2.5c0-1,0.3-1.9,0.9-2.6c0.6-0.6,1.3-1,2.3-1c0.7,0,1.4,0.3,2,0.9
		c0.6,0.6,1,1.3,1.3,2c0.3,0.8,0.5,1.6,0.6,2.4l0,0.3l3.6-1.1l-0.1-0.2c-0.2-1-0.5-1.9-0.9-2.7c-0.4-0.8-0.9-1.6-1.4-2.3
		c-0.6-0.7-1.3-1.3-2.2-1.7c-0.9-0.4-1.8-0.6-2.9-0.6c-2.2,0-3.9,0.6-5.3,1.8c-1.3,1.2-2,2.9-2,5.1c0,1.4,0.4,2.6,1.2,3.7
		c0.8,1.1,2,2.3,3.5,3.7l2,1.8c3.1,2.7,4.7,5,4.7,6.6c0,1.2-0.3,2.2-0.9,2.9c-0.6,0.7-1.4,1-2.5,1c-0.6,0-1.2-0.2-1.8-0.5
		c-0.6-0.4-1.1-0.9-1.5-1.5c-0.4-0.6-0.8-1.2-1.1-1.9c-0.3-0.6-0.6-1.3-0.8-1.9l-0.1-0.3l-3.2,1.1l0.1,0.2c0.6,2.2,1.5,4.1,2.9,5.6
		c1.4,1.5,3.2,2.2,5.3,2.2c2.2,0,3.9-0.6,5.3-1.9c1.4-1.2,2-3,2-5.1c0-0.8-0.1-1.6-0.4-2.3C117.5,39.9,117.2,39.2,116.9,38.7z"/>
	<path class="st1" d="M126.5,11.1h-4v9.9h-3.8v2.5h3.8v19c0,0.8,0,1.5,0.1,2.1c0,0.6,0.2,1.2,0.4,1.9c0.2,0.7,0.5,1.3,0.8,1.7
		c0.4,0.4,0.9,0.8,1.5,1.1c0.6,0.3,1.4,0.4,2.3,0.4c1,0,2-0.1,3.1-0.4l0.2-0.1v-2.9l-0.3,0.1c-0.6,0.1-1.3,0.2-2,0.2
		c-0.4,0-0.7-0.1-1-0.2c-0.3-0.1-0.5-0.3-0.6-0.5c-0.1-0.2-0.2-0.5-0.3-0.9c-0.1-0.4-0.1-0.8-0.1-1.2c0-0.4,0-0.9,0-1.6V23.4h4.5
		v-2.5h-4.5V11.1z"/>
	<path class="st1" d="M148.6,28.8c-0.1-1.2-0.2-2.1-0.4-2.7c-0.2-0.6-0.5-1.4-0.8-2.2c-0.4-0.9-0.8-1.5-1.4-2
		c-0.5-0.4-1.2-0.8-2-1.1c-0.8-0.3-1.8-0.5-2.8-0.5c-1,0-2,0.2-2.8,0.5c-0.8,0.3-1.5,0.7-2,1.1c-0.5,0.5-1,1.1-1.4,2
		c-0.4,0.8-0.6,1.6-0.8,2.2c-0.2,0.6-0.3,1.6-0.4,2.7c-0.1,1.1-0.1,2-0.2,2.7c0,0.7,0,1.6,0,2.8v1.4c0,1,0,1.8,0,2.3
		c0,0.5,0,1.3,0.1,2.2c0,0.9,0.1,1.7,0.2,2.2c0.1,0.5,0.2,1.1,0.4,1.9c0.2,0.8,0.4,1.4,0.6,1.8c0.2,0.4,0.6,0.9,0.9,1.4
		c0.4,0.5,0.9,0.9,1.4,1.2c0.5,0.3,1.1,0.5,1.8,0.7c0.7,0.2,1.4,0.3,2.3,0.3c0.8,0,1.6-0.1,2.3-0.3c0.7-0.2,1.3-0.4,1.8-0.7
		c0.5-0.3,1-0.7,1.4-1.2c0.4-0.5,0.7-1,0.9-1.4c0.3-0.4,0.5-1.1,0.6-1.8c0.2-0.7,0.3-1.4,0.4-1.9c0.1-0.5,0.1-1.3,0.2-2.2
		c0-0.9,0.1-1.7,0.1-2.2c0-0.5,0-1.3,0-2.3v-1.4c0-1.2,0-2.2,0-2.8C148.7,30.9,148.6,30,148.6,28.8z M144.7,34.4v1.4
		c0,4.3-0.3,7.3-0.8,8.9c-0.5,1.5-1.4,2.3-2.9,2.3s-2.4-0.7-2.9-2.3c-0.5-1.6-0.8-4.6-0.8-8.9v-1.4c0-1.5,0-2.7,0-3.7
		c0-1,0.1-2,0.2-2.9c0.1-0.9,0.2-1.6,0.4-2.2c0.2-0.5,0.4-1,0.7-1.4c0.3-0.4,0.6-0.7,0.9-0.8c0.4-0.2,0.8-0.2,1.4-0.2s1,0.1,1.4,0.2
		c0.4,0.2,0.7,0.4,0.9,0.8c0.3,0.4,0.5,0.9,0.7,1.4c0.2,0.5,0.3,1.3,0.4,2.2c0.1,0.9,0.2,1.9,0.2,2.9
		C144.7,31.7,144.7,32.9,144.7,34.4z"/>
	<path class="st1" d="M159.4,21.7c-0.8,0.5-1.5,1.2-1.9,2.1v-2.8h-4v28.3h4v-21c0-2.6,1.7-3.8,5.1-3.8c0.2,0,0.3,0,0.4,0.1l0.4,0.1
		v-4.2l-0.3,0C161.8,20.5,160.6,20.9,159.4,21.7z"/>
	<path class="st1" d="M178.5,23.1c-1.1-1.8-3-2.8-5.6-2.8c-1,0-1.8,0.1-2.6,0.3c-0.7,0.2-1.5,0.5-2.2,1.1c-0.7,0.5-1.3,1.2-1.7,2.1
		c-0.4,0.9-0.8,2-1.1,3.5c-0.3,1.4-0.4,3.1-0.4,5.1v3.9c0,3.5,0.2,6.3,0.7,8.3c0.5,2,1.4,3.4,2.5,4.2c1.1,0.8,2.7,1.2,4.7,1.2
		c1,0,2-0.2,2.8-0.5c0.8-0.4,1.5-0.8,2-1.4c0.5-0.6,0.9-1.3,1.3-2.1c0.3-0.8,0.6-1.7,0.7-2.5c0.2-0.8,0.3-1.8,0.4-2.8l0-0.3h-3.8
		l0,0.3c0,2.4-0.4,4.1-1,5.1c-0.7,1-1.4,1.5-2.4,1.5c-0.7,0-1.2-0.1-1.7-0.3c-0.4-0.2-0.8-0.5-1.2-1.1c-0.4-0.6-0.6-1.4-0.8-2.5
		c-0.2-1.1-0.3-2.6-0.3-4.5v-4h11.1l0-0.3c0-0.7,0-1.7,0-2.9C180.2,27.7,179.7,24.9,178.5,23.1z M175.2,24.3
		c0.2,0.4,0.4,0.8,0.6,1.2c0.1,0.5,0.3,1,0.3,1.6c0.1,0.6,0.1,1.2,0.1,1.8c0,0.6,0,1.3,0,1.9c0,0.5,0,1.1,0,1.6h-7.2
		c0-1.5,0-2.5,0-3.2c0-0.7,0.1-1.6,0.2-2.6c0.1-0.9,0.3-1.6,0.6-2c0.3-0.4,0.7-0.7,1.2-1c0.5-0.3,1.2-0.4,2-0.4
		c0.5,0,0.9,0.1,1.3,0.3C174.7,23.7,175,23.9,175.2,24.3z"/>
</g>
</svg>
